<?xml version="1.0" standalone="no"?>
<svg xmlns="http://www.w3.org/2000/svg" viewBox="0 0 158.778 36" width="3175.4" height="720">
  <g transform="translate(0 3.9999999999999982) scale(0.2800001)">
    <svg width="100.0" height="100.0" x="0.0" y="0.0" viewBox="0 0 100 100">
      <g>
        <g>
          <g>
            <polyline fill="#AB8367" color="#AB8367" points="50.633,24.245 12.182,75.688 61.619,75.688    "></polyline>
          </g>
        </g>
        <g>
          <g>
            <polygon fill="#428DC2" color="#428DC2" points="53.378,24.245 65.585,75.688 87.25,75.688    "></polygon>
          </g>
        </g>
      </g>
    </svg>
  </g>
  <path fill="#5d656b" fill-rule="nonzero" d="M0 15.88L0 0.25Q1.17 0.29 1.42 0.29L1.42 0.29L2.26 0.29Q2.88 0.29 3.26 0.20L3.26 0.20L3.25 15.88L0 15.88ZM10.52 7.64L10.52 12.49Q10.52 15.13 10.62 15.88L10.62 15.88L7.56 15.88L7.56 3.63L10.52 3.63L10.52 4.69Q12.13 3.40 13.82 3.40L13.82 3.40Q15.81 3.40 16.71 5.12L16.71 5.12Q17.61 4.20 18.21 3.90L18.21 3.90Q19.21 3.40 20.21 3.40Q21.21 3.40 21.91 3.74Q22.62 4.08 23.07 4.70L23.07 4.70Q24 5.95 24 8.14L24 8.14L24 12.81Q24 14.79 24.06 15.19Q24.12 15.59 24.22 15.70Q24.32 15.82 24.39 15.91L24.39 15.91L24.36 15.96Q23.43 15.88 22.98 15.88L22.98 15.88L22.10 15.88Q21.67 15.88 21.04 15.91L21.04 15.91L21.04 9.57Q21.04 6.83 20.19 6.32L20.19 6.32Q19.91 6.15 19.53 6.15Q19.15 6.15 18.86 6.24Q18.56 6.33 18.30 6.53L18.30 6.53Q17.87 6.84 17.32 7.77L17.32 7.77Q17.33 7.86 17.33 7.96Q17.33 8.05 17.33 11.05Q17.33 14.05 17.47 15.88L17.47 15.88Q16.48 15.88 15.78 15.88Q15.08 15.88 14.45 15.91L14.45 15.91L14.45 9.56Q14.45 7.65 14.22 7.08Q13.99 6.50 13.73 6.33Q13.48 6.15 13.10 6.15L13.10 6.15Q11.55 6.15 10.52 7.64L10.52 7.64ZM30.56 7.64L30.56 12.49Q30.56 15.13 30.66 15.88L30.66 15.88L27.60 15.88L27.60 3.63L30.56 3.63L30.56 4.69Q32.17 3.40 33.86 3.40L33.86 3.40Q35.85 3.40 36.75 5.12L36.75 5.12Q37.65 4.20 38.25 3.90L38.25 3.90Q39.25 3.40 40.25 3.40Q41.25 3.40 41.95 3.74Q42.66 4.08 43.11 4.70L43.11 4.70Q44.04 5.95 44.04 8.14L44.04 8.14L44.04 12.81Q44.04 14.79 44.10 15.19Q44.16 15.59 44.26 15.70Q44.36 15.82 44.43 15.91L44.43 15.91L44.40 15.96Q43.46 15.88 43.02 15.88L43.02 15.88L42.14 15.88Q41.71 15.88 41.07 15.91L41.07 15.91L41.07 9.57Q41.07 6.83 40.23 6.32L40.23 6.32Q39.95 6.15 39.57 6.15Q39.19 6.15 38.89 6.24Q38.60 6.33 38.34 6.53L38.34 6.53Q37.91 6.84 37.36 7.77L37.36 7.77Q37.37 7.86 37.37 7.96Q37.37 8.05 37.37 11.05Q37.37 14.05 37.51 15.88L37.51 15.88Q36.52 15.88 35.82 15.88Q35.12 15.88 34.49 15.91L34.49 15.91L34.49 9.56Q34.49 7.65 34.26 7.08Q34.03 6.50 33.77 6.33Q33.52 6.15 33.14 6.15L33.14 6.15Q31.59 6.15 30.56 7.64L30.56 7.64ZM46.55 9.82L46.55 9.82Q46.55 8.53 46.99 7.35Q47.43 6.18 48.25 5.30L48.25 5.30Q50.04 3.40 52.90 3.40L52.90 3.40Q55.75 3.40 57.42 5.19L57.42 5.19Q59.03 6.90 59.03 9.63L59.03 9.63Q59.03 12.36 57.38 14.16L57.38 14.16Q55.63 16.05 52.75 16.05L52.75 16.05Q49.77 16.05 48.08 14.19L48.08 14.19Q46.55 12.49 46.55 9.82ZM49.39 9.75L49.39 9.75Q49.39 10.49 49.64 11.18Q49.89 11.87 50.34 12.36L50.34 12.36Q51.32 13.43 52.90 13.43L52.90 13.43Q54.36 13.43 55.21 12.39L55.21 12.39Q56.03 11.38 56.03 9.76L56.03 9.76Q56.03 8.12 55.18 7.11L55.18 7.11Q54.28 6.04 52.71 6.04L52.71 6.04Q51.12 6.04 50.21 7.18L50.21 7.18Q49.39 8.24 49.39 9.75ZM71.17 1.16L71.17 1.16L70.95 4.61L70.86 4.63Q70.00 3.33 67.91 2.94L67.91 2.94Q67.25 2.81 66.65 2.81Q66.05 2.81 65.62 2.92Q65.19 3.02 64.89 3.22L64.89 3.22Q64.24 3.64 64.24 4.32L64.24 4.32Q64.24 5.21 64.80 5.66L64.80 5.66Q65.51 6.20 67.14 6.42Q68.77 6.63 69.75 7.01Q70.73 7.38 71.37 7.96L71.37 7.96Q72.56 9.04 72.56 11.00L72.56 11.00Q72.56 13.58 70.62 14.98L70.62 14.98Q68.95 16.17 66.42 16.17L66.42 16.17Q64.38 16.17 62.39 15.40L62.39 15.40Q61.73 15.14 61.24 14.80L61.24 14.80L61.37 10.89L61.42 10.85Q62.87 13.36 66.19 13.36L66.19 13.36Q68.54 13.36 69.30 12.22L69.30 12.22Q69.56 11.84 69.56 11.36Q69.56 10.89 69.41 10.58Q69.26 10.27 68.91 10.04L68.91 10.04Q68.23 9.60 66.62 9.45Q65.02 9.29 64.00 8.87Q62.98 8.45 62.37 7.83L62.37 7.83Q61.27 6.70 61.27 4.69L61.27 4.69Q61.27 2.60 62.73 1.31L62.73 1.31Q64.22 0 66.74 0Q69.27 0 71.17 1.16ZM80.88 13.30L80.88 13.30Q82.39 13.30 82.96 12.52L82.96 12.52L83.05 12.52L83.09 15.23Q82.51 15.81 80.95 16.00L80.95 16.00Q80.53 16.05 79.90 16.05Q79.28 16.05 78.54 15.82Q77.81 15.59 77.30 15.06L77.30 15.06Q76.23 13.97 76.23 11.65L76.23 11.65L76.23 6.33L74.46 6.33Q74.45 5.99 74.45 5.64L74.45 5.64L74.45 3.83Q74.45 3.63 74.46 3.63L74.46 3.63L76.23 3.63L76.23 0.29L79.10 0.29L79.10 3.63L82.32 3.63L82.32 6.33L79.10 6.33L79.10 11.11Q79.10 12.95 80.12 13.21L80.12 13.21Q80.45 13.30 80.88 13.30ZM84.88 9.86L84.88 9.86Q84.88 8.48 85.35 7.31Q85.82 6.14 86.67 5.26L86.67 5.26Q88.50 3.40 91.45 3.40L91.45 3.40Q93.95 3.40 95.46 5.05L95.46 5.05Q96.95 6.64 96.95 9.06L96.95 9.06Q96.95 9.98 96.81 10.32L96.81 10.32Q95.64 10.65 92.04 10.65L92.04 10.65L87.91 10.65Q88.22 11.91 89.33 12.60Q90.45 13.30 92.23 13.30L92.23 13.30Q94.09 13.30 95.43 12.63L95.43 12.63Q95.78 12.46 95.95 12.30L95.95 12.30Q95.93 12.80 95.89 13.31L95.89 13.31L95.77 15.14Q94.88 15.75 92.88 15.98L92.88 15.98Q92.30 16.05 91.76 16.05L91.76 16.05Q88.78 16.05 86.84 14.32L86.84 14.32Q84.88 12.57 84.88 9.86ZM93.83 8.38L93.83 8.38Q93.35 5.86 91.09 5.86L91.09 5.86Q89.31 5.86 88.38 7.39L88.38 7.39Q88.10 7.86 87.95 8.43L87.95 8.43Q88.23 8.44 88.64 8.45L88.64 8.45L89.51 8.45Q89.94 8.46 90.34 8.46L90.34 8.46L91.01 8.46Q91.61 8.46 92.18 8.45L92.18 8.45L93.14 8.41Q93.53 8.40 93.83 8.38ZM102.54 15.63L102.54 15.63L102.54 19.08Q102.54 20.09 102.59 20.39L102.59 20.39L99.67 20.39L99.67 3.63L102.54 3.63L102.54 4.39Q103.96 3.40 105.26 3.40Q106.56 3.40 107.57 3.76Q108.57 4.13 109.34 4.89L109.34 4.89Q111.01 6.54 111.01 9.60L111.01 9.60Q111.01 11.63 110.06 13.22L110.06 13.22Q109.25 14.57 107.82 15.38L107.82 15.38Q106.56 16.09 105.08 16.09Q103.61 16.09 102.54 15.63ZM102.54 7.03L102.54 12.68Q103.43 13.43 104.85 13.43L104.85 13.43Q107.17 13.43 107.85 11.19L107.85 11.19Q108.08 10.43 108.08 9.56Q108.08 8.68 107.92 8.16Q107.75 7.64 107.49 7.26Q107.23 6.88 106.90 6.63Q106.57 6.38 106.23 6.22L106.23 6.22Q105.63 5.95 105 5.95Q104.37 5.95 103.69 6.25Q103.01 6.54 102.54 7.03L102.54 7.03ZM117.60 16.05L117.60 16.05Q114.29 16.05 112.62 14.85L112.62 14.85Q112.64 14.50 112.69 14.05L112.69 14.05L112.79 13.21Q112.89 12.38 112.91 12.17Q112.93 11.96 112.95 11.95Q112.96 11.93 113.13 12.13Q113.31 12.34 113.80 12.63Q114.29 12.93 114.94 13.15L114.94 13.15Q116.33 13.63 117.84 13.63L117.84 13.63Q119.87 13.63 119.87 12.28L119.87 12.28Q119.87 11.85 119.48 11.64L119.48 11.64Q118.79 11.29 117.45 11.10Q116.11 10.92 115.25 10.57Q114.40 10.22 113.86 9.73L113.86 9.73Q112.86 8.80 112.86 7.30L112.86 7.30Q112.86 5.47 114.27 4.43L114.27 4.43Q115.66 3.40 118.13 3.40L118.13 3.40Q120.56 3.40 122.29 4.78L122.29 4.78Q122.20 5.09 122.11 5.37L122.11 5.37Q121.84 6.14 121.71 6.48L121.71 6.48L121.44 7.17Q121.42 7.27 121.41 7.27L121.41 7.27Q121.38 7.27 121.22 7.02L121.22 7.02Q120.48 6.16 118.92 5.89L118.92 5.89Q118.44 5.80 117.94 5.80L117.94 5.80Q115.80 5.80 115.80 7.09L115.80 7.09Q115.80 7.54 116.25 7.77L116.25 7.77Q117.08 8.21 118.53 8.43Q119.98 8.64 120.73 8.99Q121.48 9.35 121.93 9.86L121.93 9.86Q122.78 10.77 122.78 12.28L122.78 12.28Q122.78 13.93 121.45 14.96L121.45 14.96Q120.07 16.05 117.60 16.05Z" transform="translate(36, 10.061)"></path>
</svg>