<?xml version="1.0" encoding="utf-8"?>
<!-- Generator: Adobe Illustrator 25.0.0, SVG Export Plug-In . SVG Version: 6.00 Build 0)  -->
<svg version="1.1" id="Calque_1" xmlns="http://www.w3.org/2000/svg" xmlns:xlink="http://www.w3.org/1999/xlink" x="0px" y="0px"
	 viewBox="0 0 147 36" style="enable-background:new 0 0 147 36;" xml:space="preserve">
<style type="text/css">
	.st0{fill:#AB8367;}
	.st1{fill:#428DC2;}
	.st2{fill:#5D656B;}
</style>
<g transform="translate(0 3.9999999999999982) scale(0.2800001)">
	<g>
		<g>
			<g>
				<polyline class="st0" points="50.6,24.2 12.2,75.7 61.6,75.7 				"/>
			</g>
		</g>
		<g>
			<g>
				<polygon class="st1" points="53.4,24.2 65.6,75.7 87.3,75.7 				"/>
			</g>
		</g>
	</g>
</g>
<path class="st2" d="M36,25.9V10.3c0.8,0,1.3,0,1.4,0l0,0h0.8c0.4,0,0.7,0,1-0.1l0,0l0,15.7H36z M46.5,17.7v4.9c0,1.8,0,2.9,0.1,3.4
	l0,0h-3.1V13.7h3v1.1c1.1-0.9,2.2-1.3,3.3-1.3l0,0c1.3,0,2.3,0.6,2.9,1.7l0,0c0.6-0.6,1.1-1,1.5-1.2l0,0c0.7-0.3,1.3-0.5,2-0.5
	c0.7,0,1.2,0.1,1.7,0.3c0.5,0.2,0.9,0.5,1.2,1l0,0c0.6,0.8,0.9,2,0.9,3.4l0,0v4.7c0,1.3,0,2.1,0.1,2.4s0.1,0.4,0.2,0.5
	c0.1,0.1,0.1,0.1,0.2,0.2l0,0l0,0c-0.6-0.1-1.1-0.1-1.4-0.1l0,0h-0.9c-0.3,0-0.6,0-1.1,0l0,0v-6.3c0-1.8-0.3-2.9-0.8-3.2l0,0
	c-0.2-0.1-0.4-0.2-0.7-0.2s-0.5,0-0.7,0.1c-0.2,0.1-0.4,0.2-0.6,0.3l0,0c-0.3,0.2-0.6,0.6-1,1.2l0,0c0,0.1,0,0.1,0,0.2
	c0,0.1,0,1.1,0,3.1s0,3.6,0.1,4.8l0,0c-0.7,0-1.2,0-1.7,0s-0.9,0-1.3,0l0,0v-6.4c0-1.3-0.1-2.1-0.2-2.5c-0.2-0.4-0.3-0.6-0.5-0.8
	c-0.2-0.1-0.4-0.2-0.6-0.2l0,0C48.1,16.2,47.2,16.7,46.5,17.7L46.5,17.7z M66.6,17.7v4.9c0,1.8,0,2.9,0.1,3.4l0,0h-3.1V13.7h3v1.1
	c1.1-0.9,2.2-1.3,3.3-1.3l0,0c1.3,0,2.3,0.6,2.9,1.7l0,0c0.6-0.6,1.1-1,1.5-1.2l0,0c0.7-0.3,1.3-0.5,2-0.5c0.7,0,1.2,0.1,1.7,0.3
	c0.5,0.2,0.9,0.5,1.2,1l0,0c0.6,0.8,0.9,2,0.9,3.4l0,0v4.7c0,1.3,0,2.1,0.1,2.4s0.1,0.4,0.2,0.5c0.1,0.1,0.1,0.1,0.2,0.2l0,0l0,0
	c-0.6-0.1-1.1-0.1-1.4-0.1l0,0h-0.9c-0.3,0-0.6,0-1.1,0l0,0v-6.3c0-1.8-0.3-2.9-0.8-3.2l0,0c-0.2-0.1-0.4-0.2-0.7-0.2
	s-0.5,0-0.7,0.1c-0.2,0.1-0.4,0.2-0.6,0.3l0,0c-0.3,0.2-0.6,0.6-1,1.2l0,0c0,0.1,0,0.1,0,0.2c0,0.1,0,1.1,0,3.1s0,3.6,0.1,4.8l0,0
	c-0.7,0-1.2,0-1.7,0s-0.9,0-1.3,0l0,0v-6.4c0-1.3-0.1-2.1-0.2-2.5c-0.2-0.4-0.3-0.6-0.5-0.8c-0.2-0.1-0.4-0.2-0.6-0.2l0,0
	C68.1,16.2,67.2,16.7,66.6,17.7L66.6,17.7z M82.6,19.9L82.6,19.9c0-0.9,0.1-1.7,0.4-2.5c0.3-0.8,0.7-1.5,1.3-2.1l0,0
	c1.2-1.3,2.7-1.9,4.7-1.9l0,0c1.9,0,3.4,0.6,4.5,1.8l0,0c1.1,1.1,1.6,2.6,1.6,4.4l0,0c0,1.8-0.6,3.3-1.6,4.5l0,0
	c-1.2,1.3-2.7,1.9-4.6,1.9l0,0c-2,0-3.5-0.6-4.7-1.9l0,0C83.1,23.1,82.6,21.7,82.6,19.9z M85.4,19.8L85.4,19.8c0,0.5,0.1,1,0.2,1.4
	c0.2,0.5,0.4,0.9,0.7,1.2l0,0c0.7,0.7,1.5,1.1,2.6,1.1l0,0c1,0,1.7-0.3,2.3-1l0,0c0.5-0.7,0.8-1.5,0.8-2.6l0,0c0-1.1-0.3-2-0.8-2.6
	l0,0c-0.6-0.7-1.4-1.1-2.5-1.1l0,0c-1.1,0-1.9,0.4-2.5,1.1l0,0C85.7,17.9,85.4,18.8,85.4,19.8z M107.2,11.2L107.2,11.2l-0.2,3.4
	l-0.1,0c-0.6-0.9-1.6-1.4-2.9-1.7l0,0c-0.4-0.1-0.9-0.1-1.3-0.1c-0.4,0-0.7,0-1,0.1c-0.3,0.1-0.5,0.2-0.7,0.3l0,0
	c-0.4,0.3-0.7,0.6-0.7,1.1l0,0c0,0.6,0.2,1,0.6,1.3l0,0c0.5,0.4,1.3,0.6,2.3,0.8c1.1,0.1,2,0.3,2.6,0.6c0.7,0.2,1.2,0.6,1.6,0.9l0,0
	c0.8,0.7,1.2,1.7,1.2,3l0,0c0,1.7-0.6,3-1.9,4l0,0c-1.1,0.8-2.5,1.2-4.2,1.2l0,0c-1.4,0-2.7-0.3-4-0.8l0,0c-0.4-0.2-0.8-0.4-1.1-0.6
	l0,0l0.1-3.9l0.1,0c1,1.7,2.6,2.5,4.8,2.5l0,0c1.6,0,2.6-0.4,3.1-1.1l0,0c0.2-0.3,0.3-0.5,0.3-0.9c0-0.3,0-0.6-0.1-0.8
	s-0.3-0.4-0.5-0.5l0,0c-0.5-0.3-1.2-0.5-2.3-0.6c-1.1-0.1-1.9-0.3-2.6-0.6c-0.7-0.3-1.2-0.6-1.6-1l0,0c-0.7-0.8-1.1-1.8-1.1-3.1l0,0
	c0-1.4,0.5-2.5,1.5-3.4l0,0c1-0.9,2.3-1.3,4-1.3C104.4,10.1,105.9,10.4,107.2,11.2z M116.9,23.4L116.9,23.4c1,0,1.7-0.3,2.1-0.8l0,0
	h0.1l0,2.7c-0.4,0.4-1.1,0.6-2.1,0.8l0,0c-0.3,0-0.6,0-1,0c-0.4,0-0.9-0.1-1.4-0.2c-0.5-0.2-0.9-0.4-1.2-0.8l0,0
	c-0.7-0.7-1.1-1.9-1.1-3.4l0,0v-5.3h-1.8c0-0.2,0-0.5,0-0.7l0,0v-1.8c0-0.1,0-0.2,0-0.2l0,0h1.8v-3.3h2.9v3.3h3.2v2.7h-3.2v4.8
	c0,1.2,0.3,1.9,1,2.1l0,0C116.3,23.3,116.6,23.4,116.9,23.4z M120.9,19.9L120.9,19.9c0-0.9,0.2-1.8,0.5-2.5c0.3-0.8,0.8-1.5,1.3-2
	l0,0c1.2-1.2,2.8-1.9,4.8-1.9l0,0c1.7,0,3,0.6,4,1.7l0,0c1,1.1,1.5,2.4,1.5,4l0,0c0,0.6,0,1-0.1,1.3l0,0c-0.8,0.2-2.4,0.3-4.8,0.3
	l0,0h-4.1c0.2,0.8,0.7,1.5,1.4,2c0.7,0.5,1.7,0.7,2.9,0.7l0,0c1.2,0,2.3-0.2,3.2-0.7l0,0c0.2-0.1,0.4-0.2,0.5-0.3l0,0
	c0,0.3,0,0.7-0.1,1l0,0l-0.1,1.8c-0.6,0.4-1.6,0.7-2.9,0.8l0,0c-0.4,0-0.8,0.1-1.1,0.1l0,0c-2,0-3.6-0.6-4.9-1.7l0,0
	C121.5,23.2,120.9,21.7,120.9,19.9z M129.8,18.4L129.8,18.4c-0.3-1.7-1.2-2.5-2.7-2.5l0,0c-1.2,0-2.1,0.5-2.7,1.5l0,0
	c-0.2,0.3-0.3,0.7-0.4,1l0,0c0.2,0,0.4,0,0.7,0l0,0h0.9c0.3,0,0.6,0,0.8,0l0,0h0.7c0.4,0,0.8,0,1.2,0l0,0l1,0
	C129.4,18.5,129.6,18.5,129.8,18.4z M138.5,25.7L138.5,25.7v3.5c0,0.7,0,1.1,0,1.3l0,0h-2.9V13.7h2.9v0.8c0.9-0.7,1.9-1,2.7-1
	c0.9,0,1.6,0.1,2.3,0.4c0.7,0.2,1.3,0.6,1.8,1.1l0,0c1.1,1.1,1.7,2.7,1.7,4.7l0,0c0,1.4-0.3,2.6-1,3.6l0,0c-0.5,0.9-1.3,1.6-2.2,2.2
	l0,0c-0.8,0.5-1.8,0.7-2.7,0.7C140.1,26.2,139.3,26,138.5,25.7z M138.5,17.1v5.6c0.6,0.5,1.4,0.8,2.3,0.8l0,0c1.5,0,2.5-0.7,3-2.2
	l0,0c0.2-0.5,0.2-1,0.2-1.6c0-0.6-0.1-1.1-0.2-1.4c-0.1-0.3-0.3-0.6-0.4-0.9c-0.2-0.3-0.4-0.5-0.6-0.6c-0.2-0.2-0.4-0.3-0.7-0.4l0,0
	c-0.4-0.2-0.8-0.3-1.2-0.3s-0.9,0.1-1.3,0.3C139.2,16.5,138.9,16.8,138.5,17.1L138.5,17.1z"/>
</svg>
